<?xml version="1.0" encoding="UTF-8" standalone="no"?>
<!DOCTYPE svg PUBLIC "-//W3C//DTD SVG 1.1//EN"
 "http://www.w3.org/Graphics/SVG/1.1/DTD/svg11.dtd">
<!-- Generated by graphviz version 2.43.0 (0)
 -->
<!-- Title: %3 Pages: 1 -->
<svg width="731pt" height="305pt"
 viewBox="0.00 0.00 731.00 305.00" xmlns="http://www.w3.org/2000/svg" xmlns:xlink="http://www.w3.org/1999/xlink">
<g id="graph0" class="graph" transform="scale(1 1) rotate(0) translate(4 301)">
<title>%3</title>
<polygon fill="white" stroke="transparent" points="-4,4 -4,-301 727,-301 727,4 -4,4"/>
<!-- NNabla1 -->
<g id="node1" class="node">
<title>NNabla1</title>
<path fill="lime" stroke="black" d="M82,-192C82,-192 12,-192 12,-192 6,-192 0,-186 0,-180 0,-180 0,-146 0,-146 0,-140 6,-134 12,-134 12,-134 82,-134 82,-134 88,-134 94,-140 94,-146 94,-146 94,-180 94,-180 94,-186 88,-192 82,-192"/>
<text text-anchor="middle" x="47" y="-159.2" font-family="Times,serif" font-size="16.00">NNabla</text>
</g>
<!-- NNP1 -->
<g id="node8" class="node">
<title>NNP1</title>
<polygon fill="cyan" stroke="black" points="332,-173.5 282,-173.5 282,-152.5 332,-152.5 332,-173.5"/>
<text text-anchor="middle" x="307" y="-159.9" font-family="Times,serif" font-size="12.00">NNP</text>
</g>
<!-- NNabla1&#45;&gt;NNP1 -->
<g id="edge1" class="edge">
<title>NNabla1&#45;&gt;NNP1</title>
<path fill="none" stroke="black" d="M94.13,-163C145.12,-163 226.06,-163 271.73,-163"/>
<polygon fill="black" stroke="black" points="272,-166.5 282,-163 272,-159.5 272,-166.5"/>
</g>
<!-- NNabla2 -->
<g id="node2" class="node">
<title>NNabla2</title>
<path fill="lime" stroke="black" d="M711,-242.5C711,-242.5 646,-242.5 646,-242.5 640,-242.5 634,-236.5 634,-230.5 634,-230.5 634,-211.5 634,-211.5 634,-205.5 640,-199.5 646,-199.5 646,-199.5 711,-199.5 711,-199.5 717,-199.5 723,-205.5 723,-211.5 723,-211.5 723,-230.5 723,-230.5 723,-236.5 717,-242.5 711,-242.5"/>
<text text-anchor="middle" x="678.5" y="-224.4" font-family="Times,serif" font-size="12.00">Use NNabla as</text>
<text text-anchor="middle" x="678.5" y="-211.4" font-family="Times,serif" font-size="12.00">Runtime</text>
</g>
<!-- Other -->
<g id="node3" class="node">
<title>Other</title>
<path fill="none" stroke="black" d="M82,-116C82,-116 12,-116 12,-116 6,-116 0,-110 0,-104 0,-104 0,-70 0,-70 0,-64 6,-58 12,-58 12,-58 82,-58 82,-58 88,-58 94,-64 94,-70 94,-70 94,-104 94,-104 94,-110 88,-116 82,-116"/>
<text text-anchor="middle" x="47" y="-90.4" font-family="Times,serif" font-size="12.00">Other</text>
<text text-anchor="middle" x="47" y="-77.4" font-family="Times,serif" font-size="12.00">(Caffe2 etc.)</text>
</g>
<!-- ONNX1 -->
<g id="node4" class="node">
<title>ONNX1</title>
<polygon fill="mediumslateblue" stroke="black" points="203,-97.5 151,-97.5 151,-76.5 203,-76.5 203,-97.5"/>
<text text-anchor="middle" x="177" y="-83.9" font-family="Times,serif" font-size="12.00">ONNX</text>
</g>
<!-- Other&#45;&gt;ONNX1 -->
<g id="edge3" class="edge">
<title>Other&#45;&gt;ONNX1</title>
<path fill="none" stroke="black" d="M94.21,-87C109.39,-87 126.02,-87 140.3,-87"/>
<polygon fill="black" stroke="black" points="140.69,-90.5 150.69,-87 140.69,-83.5 140.69,-90.5"/>
</g>
<!-- Conv1 -->
<g id="node6" class="node">
<title>Conv1</title>
<path fill="lime" stroke="black" d="M342,-87C342,-87 272,-87 272,-87 266,-87 260,-81 260,-75 260,-75 260,-41 260,-41 260,-35 266,-29 272,-29 272,-29 342,-29 342,-29 348,-29 354,-35 354,-41 354,-41 354,-75 354,-75 354,-81 348,-87 342,-87"/>
<text text-anchor="middle" x="307" y="-63.2" font-family="Times,serif" font-size="16.00">File Format</text>
<text text-anchor="middle" x="307" y="-45.2" font-family="Times,serif" font-size="16.00">Converter</text>
</g>
<!-- ONNX1&#45;&gt;Conv1 -->
<g id="edge4" class="edge">
<title>ONNX1&#45;&gt;Conv1</title>
<path fill="none" stroke="black" d="M203.29,-81.27C216.62,-78.25 233.55,-74.41 249.79,-70.73"/>
<polygon fill="black" stroke="black" points="250.8,-74.09 259.78,-68.47 249.26,-67.27 250.8,-74.09"/>
</g>
<!-- ONNX2 -->
<g id="node5" class="node">
<title>ONNX2</title>
<polygon fill="mediumslateblue" stroke="black" points="585,-274.5 533,-274.5 533,-253.5 585,-253.5 585,-274.5"/>
<text text-anchor="middle" x="559" y="-260.9" font-family="Times,serif" font-size="12.00">ONNX</text>
</g>
<!-- OtherRuntime -->
<g id="node14" class="node">
<title>OtherRuntime</title>
<path fill="none" stroke="black" d="M709.5,-297C709.5,-297 647.5,-297 647.5,-297 641.5,-297 635.5,-291 635.5,-285 635.5,-285 635.5,-273 635.5,-273 635.5,-267 641.5,-261 647.5,-261 647.5,-261 709.5,-261 709.5,-261 715.5,-261 721.5,-267 721.5,-273 721.5,-273 721.5,-285 721.5,-285 721.5,-291 715.5,-297 709.5,-297"/>
<text text-anchor="middle" x="678.5" y="-275.9" font-family="Times,serif" font-size="12.00">Other runtime</text>
</g>
<!-- ONNX2&#45;&gt;OtherRuntime -->
<g id="edge7" class="edge">
<title>ONNX2&#45;&gt;OtherRuntime</title>
<path fill="none" stroke="black" d="M585.21,-267.22C596.93,-268.71 611.33,-270.55 625.23,-272.33"/>
<polygon fill="black" stroke="black" points="624.87,-275.81 635.23,-273.6 625.75,-268.87 624.87,-275.81"/>
</g>
<!-- Conv1&#45;&gt;NNP1 -->
<g id="edge5" class="edge">
<title>Conv1&#45;&gt;NNP1</title>
<path fill="none" stroke="black" d="M307,-87.12C307,-105.46 307,-123.8 307,-142.14"/>
<polygon fill="black" stroke="black" points="303.5,-142.33 307,-152.33 310.5,-142.33 303.5,-142.33"/>
</g>
<!-- Conv2 -->
<g id="node7" class="node">
<title>Conv2</title>
<path fill="lime" stroke="black" d="M472,-192C472,-192 402,-192 402,-192 396,-192 390,-186 390,-180 390,-180 390,-146 390,-146 390,-140 396,-134 402,-134 402,-134 472,-134 472,-134 478,-134 484,-140 484,-146 484,-146 484,-180 484,-180 484,-186 478,-192 472,-192"/>
<text text-anchor="middle" x="437" y="-168.2" font-family="Times,serif" font-size="16.00">File Format</text>
<text text-anchor="middle" x="437" y="-150.2" font-family="Times,serif" font-size="16.00">Converter</text>
</g>
<!-- Conv2&#45;&gt;ONNX2 -->
<g id="edge6" class="edge">
<title>Conv2&#45;&gt;ONNX2</title>
<path fill="none" stroke="black" d="M472.71,-192.21C493.65,-209.84 519.62,-231.69 537.36,-246.63"/>
<polygon fill="black" stroke="black" points="535.45,-249.6 545.36,-253.36 539.96,-244.24 535.45,-249.6"/>
</g>
<!-- NNP2 -->
<g id="node9" class="node">
<title>NNP2</title>
<polygon fill="cyan" stroke="black" points="584,-221.5 534,-221.5 534,-200.5 584,-200.5 584,-221.5"/>
<text text-anchor="middle" x="559" y="-207.9" font-family="Times,serif" font-size="12.00">NNP</text>
</g>
<!-- Conv2&#45;&gt;NNP2 -->
<g id="edge12" class="edge">
<title>Conv2&#45;&gt;NNP2</title>
<path fill="none" stroke="black" d="M484.05,-181.42C497.4,-186.76 511.73,-192.49 524.18,-197.47"/>
<polygon fill="black" stroke="black" points="523.13,-200.82 533.72,-201.29 525.73,-194.32 523.13,-200.82"/>
</g>
<!-- NNB -->
<g id="node10" class="node">
<title>NNB</title>
<polygon fill="cyan" stroke="black" points="584,-173.5 534,-173.5 534,-152.5 584,-152.5 584,-173.5"/>
<text text-anchor="middle" x="559" y="-159.9" font-family="Times,serif" font-size="12.00">NNB</text>
</g>
<!-- Conv2&#45;&gt;NNB -->
<g id="edge8" class="edge">
<title>Conv2&#45;&gt;NNB</title>
<path fill="none" stroke="black" d="M484.05,-163C497.14,-163 511.16,-163 523.44,-163"/>
<polygon fill="black" stroke="black" points="523.72,-166.5 533.72,-163 523.72,-159.5 523.72,-166.5"/>
</g>
<!-- CSRC -->
<g id="node11" class="node">
<title>CSRC</title>
<polygon fill="mediumseagreen" stroke="black" points="589,-130 529,-130 529,-94 589,-94 589,-130"/>
<text text-anchor="middle" x="559" y="-115.4" font-family="Times,serif" font-size="12.00">C Source</text>
<text text-anchor="middle" x="559" y="-102.4" font-family="Times,serif" font-size="12.00">code</text>
</g>
<!-- Conv2&#45;&gt;CSRC -->
<g id="edge10" class="edge">
<title>Conv2&#45;&gt;CSRC</title>
<path fill="none" stroke="black" d="M484.05,-143.43C495.71,-138.47 508.11,-133.2 519.35,-128.42"/>
<polygon fill="black" stroke="black" points="521.06,-131.5 528.89,-124.37 518.32,-125.06 521.06,-131.5"/>
</g>
<!-- TF2 -->
<g id="node13" class="node">
<title>TF2</title>
<polygon fill="yellow" stroke="black" points="598,-76 520,-76 520,-40 598,-40 598,-76"/>
<text text-anchor="middle" x="559" y="-61.4" font-family="Times,serif" font-size="12.00">SavedModel,</text>
<text text-anchor="middle" x="559" y="-48.4" font-family="Times,serif" font-size="12.00">PB, TFlite</text>
</g>
<!-- Conv2&#45;&gt;TF2 -->
<g id="edge16" class="edge">
<title>Conv2&#45;&gt;TF2</title>
<path fill="none" stroke="black" d="M466.67,-133.79C482.01,-118.67 501.5,-100.24 520,-85 521.13,-84.07 522.29,-83.13 523.48,-82.2"/>
<polygon fill="black" stroke="black" points="525.63,-84.96 531.47,-76.11 521.39,-79.39 525.63,-84.96"/>
</g>
<!-- NNP1&#45;&gt;Conv2 -->
<g id="edge2" class="edge">
<title>NNP1&#45;&gt;Conv2</title>
<path fill="none" stroke="black" d="M332.08,-163C345.51,-163 362.85,-163 379.5,-163"/>
<polygon fill="black" stroke="black" points="379.74,-166.5 389.74,-163 379.74,-159.5 379.74,-166.5"/>
</g>
<!-- NNP2&#45;&gt;NNabla2 -->
<g id="edge13" class="edge">
<title>NNP2&#45;&gt;NNabla2</title>
<path fill="none" stroke="black" d="M584.06,-213.05C595.62,-214.03 609.98,-215.25 623.94,-216.44"/>
<polygon fill="black" stroke="black" points="623.73,-219.94 633.99,-217.3 624.32,-212.96 623.73,-219.94"/>
</g>
<!-- NNablaCRuntime -->
<g id="node15" class="node">
<title>NNablaCRuntime</title>
<path fill="lime" stroke="black" d="M709.5,-181C709.5,-181 647.5,-181 647.5,-181 641.5,-181 635.5,-175 635.5,-169 635.5,-169 635.5,-157 635.5,-157 635.5,-151 641.5,-145 647.5,-145 647.5,-145 709.5,-145 709.5,-145 715.5,-145 721.5,-151 721.5,-157 721.5,-157 721.5,-169 721.5,-169 721.5,-175 715.5,-181 709.5,-181"/>
<text text-anchor="middle" x="678.5" y="-166.4" font-family="Times,serif" font-size="12.00">NNabla C</text>
<text text-anchor="middle" x="678.5" y="-153.4" font-family="Times,serif" font-size="12.00">Runtime</text>
</g>
<!-- NNB&#45;&gt;NNablaCRuntime -->
<g id="edge9" class="edge">
<title>NNB&#45;&gt;NNablaCRuntime</title>
<path fill="none" stroke="black" d="M584.06,-163C595.95,-163 610.78,-163 625.11,-163"/>
<polygon fill="black" stroke="black" points="625.4,-166.5 635.4,-163 625.4,-159.5 625.4,-166.5"/>
</g>
<!-- Product -->
<g id="node16" class="node">
<title>Product</title>
<path fill="none" stroke="black" d="M709.5,-127C709.5,-127 647.5,-127 647.5,-127 641.5,-127 635.5,-121 635.5,-115 635.5,-115 635.5,-103 635.5,-103 635.5,-97 641.5,-91 647.5,-91 647.5,-91 709.5,-91 709.5,-91 715.5,-91 721.5,-97 721.5,-103 721.5,-103 721.5,-115 721.5,-115 721.5,-121 715.5,-127 709.5,-127"/>
<text text-anchor="middle" x="678.5" y="-112.4" font-family="Times,serif" font-size="12.00">Implement to</text>
<text text-anchor="middle" x="678.5" y="-99.4" font-family="Times,serif" font-size="12.00">product</text>
</g>
<!-- CSRC&#45;&gt;Product -->
<g id="edge11" class="edge">
<title>CSRC&#45;&gt;Product</title>
<path fill="none" stroke="black" d="M589.04,-111.26C599.98,-110.98 612.78,-110.65 625.2,-110.34"/>
<polygon fill="black" stroke="black" points="625.57,-113.83 635.48,-110.07 625.4,-106.83 625.57,-113.83"/>
</g>
<!-- TF1 -->
<g id="node12" class="node">
<title>TF1</title>
<path fill="yellow" stroke="black" d="M212,-58C212,-58 142,-58 142,-58 136,-58 130,-52 130,-46 130,-46 130,-12 130,-12 130,-6 136,0 142,0 142,0 212,0 212,0 218,0 224,-6 224,-12 224,-12 224,-46 224,-46 224,-52 218,-58 212,-58"/>
<text text-anchor="middle" x="177" y="-38.9" font-family="Times,serif" font-size="12.00">Tensorflow</text>
<text text-anchor="middle" x="177" y="-25.9" font-family="Times,serif" font-size="12.00">(.pb,ckpt,.tflite,</text>
<text text-anchor="middle" x="177" y="-12.9" font-family="Times,serif" font-size="12.00">saved_model)</text>
</g>
<!-- TF1&#45;&gt;Conv1 -->
<g id="edge14" class="edge">
<title>TF1&#45;&gt;Conv1</title>
<path fill="none" stroke="black" d="M224.21,-32.96C232.55,-34.62 241.32,-36.54 249.91,-38.59"/>
<polygon fill="black" stroke="black" points="249.31,-42.04 259.86,-41.03 250.98,-35.25 249.31,-42.04"/>
</g>
<!-- TF1&#45;&gt;Conv1 -->
<g id="edge15" class="edge">
<title>TF1&#45;&gt;Conv1</title>
<path fill="none" stroke="black" d="M224.21,-45.98C232.55,-48.1 241.32,-50.15 249.91,-52"/>
<polygon fill="black" stroke="black" points="249.35,-55.46 259.86,-54.06 250.77,-48.6 249.35,-55.46"/>
</g>
<!-- Tensorflow -->
<g id="node17" class="node">
<title>Tensorflow</title>
<path fill="none" stroke="black" d="M709.5,-73C709.5,-73 647.5,-73 647.5,-73 641.5,-73 635.5,-67 635.5,-61 635.5,-61 635.5,-49 635.5,-49 635.5,-43 641.5,-37 647.5,-37 647.5,-37 709.5,-37 709.5,-37 715.5,-37 721.5,-43 721.5,-49 721.5,-49 721.5,-61 721.5,-61 721.5,-67 715.5,-73 709.5,-73"/>
<text text-anchor="middle" x="678.5" y="-51.9" font-family="Times,serif" font-size="12.00">Tensorflow</text>
</g>
<!-- TF2&#45;&gt;Tensorflow -->
<g id="edge17" class="edge">
<title>TF2&#45;&gt;Tensorflow</title>
<path fill="none" stroke="black" d="M598.15,-57.03C606.82,-56.8 616.17,-56.57 625.3,-56.33"/>
<polygon fill="black" stroke="black" points="625.57,-59.83 635.48,-56.07 625.39,-52.83 625.57,-59.83"/>
</g>
</g>
</svg>
