<?xml version="1.0" encoding="UTF-8" standalone="no"?>
<!DOCTYPE svg PUBLIC "-//W3C//DTD SVG 1.1//EN"
 "http://www.w3.org/Graphics/SVG/1.1/DTD/svg11.dtd">
<!-- Generated by graphviz version 2.43.0 (0)
 -->
<!-- Title: %3 Pages: 1 -->
<svg width="422pt" height="109pt"
 viewBox="0.00 0.00 422.00 109.00" xmlns="http://www.w3.org/2000/svg" xmlns:xlink="http://www.w3.org/1999/xlink">
<g id="graph0" class="graph" transform="scale(1 1) rotate(0) translate(4 105)">
<title>%3</title>
<polygon fill="white" stroke="transparent" points="-4,4 -4,-105 418,-105 418,4 -4,4"/>
<!-- INPUT -->
<g id="node1" class="node">
<title>INPUT</title>
<polygon fill="lime" stroke="black" points="115,-101 0,-101 0,-65 115,-65 115,-101"/>
<text text-anchor="middle" x="57.5" y="-86.4" font-family="Times,serif" font-size="12.00">&lt;&lt;file&gt;&gt;</text>
<text text-anchor="middle" x="57.5" y="-73.4" font-family="Times,serif" font-size="12.00">INPUT</text>
</g>
<!-- proto -->
<g id="node4" class="node">
<title>proto</title>
<polygon fill="cyan" stroke="black" points="236,-94 178,-94 178,-72 236,-72 236,-94"/>
<text text-anchor="middle" x="207" y="-79.9" font-family="Times,serif" font-size="12.00">proto</text>
</g>
<!-- INPUT&#45;&gt;proto -->
<g id="edge1" class="edge">
<title>INPUT&#45;&gt;proto</title>
<path fill="none" stroke="black" d="M115.11,-83C132.7,-83 151.67,-83 167.71,-83"/>
<polygon fill="black" stroke="black" points="167.78,-86.5 177.78,-83 167.78,-79.5 167.78,-86.5"/>
<text text-anchor="middle" x="133.61" y="-71.8" font-family="Times,serif" font-size="14.00">import</text>
</g>
<!-- OUTPUT -->
<g id="node2" class="node">
<title>OUTPUT</title>
<polygon fill="lime" stroke="black" points="414,-101 299,-101 299,-65 414,-65 414,-101"/>
<text text-anchor="middle" x="356.5" y="-86.4" font-family="Times,serif" font-size="12.00">&lt;&lt;file&gt;&gt;</text>
<text text-anchor="middle" x="356.5" y="-73.4" font-family="Times,serif" font-size="12.00">OUTPUT</text>
</g>
<!-- PROCESS -->
<g id="node3" class="node">
<title>PROCESS</title>
<path fill="none" stroke="black" d="M251,-36C251,-36 163,-36 163,-36 157,-36 151,-30 151,-24 151,-24 151,-12 151,-12 151,-6 157,0 163,0 163,0 251,0 251,0 257,0 263,-6 263,-12 263,-12 263,-24 263,-24 263,-30 257,-36 251,-36"/>
<text text-anchor="middle" x="207" y="-21.4" font-family="Times,serif" font-size="12.00">Process</text>
<text text-anchor="middle" x="207" y="-8.4" font-family="Times,serif" font-size="12.00">(Split, Expand, etc.)</text>
</g>
<!-- proto&#45;&gt;OUTPUT -->
<g id="edge2" class="edge">
<title>proto&#45;&gt;OUTPUT</title>
<path fill="none" stroke="black" d="M236.09,-83C251.04,-83 270.12,-83 288.62,-83"/>
<polygon fill="black" stroke="black" points="288.81,-86.5 298.81,-83 288.81,-79.5 288.81,-86.5"/>
<text text-anchor="middle" x="281.31" y="-71.8" font-family="Times,serif" font-size="14.00">export</text>
</g>
<!-- proto&#45;&gt;PROCESS -->
<g id="edge3" class="edge">
<title>proto&#45;&gt;PROCESS</title>
<path fill="none" stroke="black" d="M207,-61.89C207,-56.64 207,-51.39 207,-46.14"/>
<polygon fill="black" stroke="black" points="203.5,-61.99 207,-71.99 210.5,-61.99 203.5,-61.99"/>
<polygon fill="black" stroke="black" points="210.5,-46.03 207,-36.03 203.5,-46.03 210.5,-46.03"/>
</g>
</g>
</svg>
